<svg fill="#000000" xmlns="http://www.w3.org/2000/svg"  viewBox="0 0 30 30" width="30px" height="30px"><path d="M 15 3 C 10.203704 3 6.8391474 5.202928 4.8105469 8.0429688 C 2.7819464 10.883009 2 14.3 2 17 C 2 18.018667 1.9850611 18.827314 2.2890625 19.611328 C 2.4192098 19.946975 2.6876639 20.255339 3 20.505859 L 3 24 A 1.0001 1.0001 0 1 0 5 24 L 5 20.761719 C 5.4542376 20.615252 5.945964 20.477274 6.203125 20.25 C 6.5800894 19.916845 6.8183594 19.574219 6.8183594 19.574219 A 1.0001 1.0001 0 1 0 5.1816406 18.425781 C 5.1816406 18.425781 5.0676919 18.583155 4.8789062 18.75 C 4.6901208 18.916845 4.480905 19 4.4394531 19 C 4.2332997 19 4.1834123 18.96492 4.1894531 18.96875 C 4.1954931 18.97255 4.1961729 18.996672 4.1542969 18.888672 C 4.0705481 18.672688 4 17.981333 4 17 C 4 14.7 4.7180536 11.616991 6.4394531 9.2070312 C 8.1608526 6.797072 10.796296 5 15 5 C 19.203704 5 21.839147 6.797072 23.560547 9.2070312 C 25.281946 11.616991 26 14.7 26 17 C 26 17.981333 25.92945 18.672686 25.845703 18.888672 C 25.803833 18.996665 25.804507 18.97258 25.810547 18.96875 C 25.816547 18.96495 25.766697 19 25.560547 19 C 25.519097 19 25.309879 18.91684 25.121094 18.75 C 24.932308 18.583155 24.818359 18.425781 24.818359 18.425781 A 1.0001 1.0001 0 1 0 23.181641 19.574219 C 23.181641 19.574219 23.419911 19.916845 23.796875 20.25 C 24.054036 20.477274 24.545762 20.615252 25 20.761719 L 25 24 A 1.0001 1.0001 0 1 0 27 24 L 27 20.505859 C 27.312336 20.255339 27.58079 19.946975 27.710938 19.611328 C 28.014942 18.827314 28 18.018667 28 17 C 28 14.3 27.218054 10.883009 25.189453 8.0429688 C 23.160853 5.202928 19.796296 3 15 3 z M 10.5 10 C 8.567 10 7 11.567 7 13.5 C 7 14.874096 7.7989024 16.050267 8.9511719 16.623047 C 8.3431097 17.68515 8 18.863361 8 20 C 8 23.981 9.009 26 11 26 C 11.939256 26 12.584154 25.61836 13.027344 25 L 16.972656 25 C 17.415846 25.61836 18.060744 26 19 26 C 20.99 26 22 23.982 22 20 C 22 18.863361 21.65689 17.68515 21.048828 16.623047 C 22.201098 16.050267 23 14.874096 23 13.5 C 23 11.567 21.433 10 19.5 10 C 17.71558 10 16.258797 11.340477 16.042969 13.066406 C 15.703951 13.013009 15.359028 12.976562 15 12.976562 C 14.640972 12.976562 14.296049 13.013009 13.957031 13.066406 C 13.741203 11.340477 12.28442 10 10.5 10 z M 15 14.976562 C 18.22 14.976562 20 17.946 20 20 C 20 22.935 19.402 24 19 24 C 18.357383 24 18.078805 22.786463 18.023438 19.988281 A 3.485 2 0 0 0 15 17 A 3.485 2 0 0 0 11.976562 19.992188 C 11.920996 22.78744 11.642311 24 11 24 C 10.598 24 10 22.935 10 20 C 10 17.947 11.781 14.976562 15 14.976562 z M 13.962891 20.90625 A 3.485 2 0 0 0 15 21 A 3.485 2 0 0 0 16.037109 20.908203 C 16.06353 21.636264 16.11972 22.340551 16.240234 23 L 13.759766 23 C 13.880388 22.339957 13.9365 21.634981 13.962891 20.90625 z"/></svg>